<svg width="133" height="19" viewBox="0 0 133 19" fill="none" xmlns="http://www.w3.org/2000/svg">
<path fill-rule="evenodd" clip-rule="evenodd" d="M35.8482 11.1546C30.2135 12.7927 23.7078 14.423 17.4493 14.8301C12.1 15.1775 6.93317 14.6379 2.70401 12.3418C2.10785 12.0185 1.36129 12.2408 1.03888 12.839C0.715983 13.4368 0.938129 14.1854 1.53429 14.5092C6.14779 17.0133 11.7732 17.6682 17.608 17.2887C23.9791 16.8748 30.6022 15.2337 36.35 13.5719C37.017 14.9266 38.398 16.1897 40.8308 17.1217C44.5675 18.5533 49.6696 18.5356 55.0444 17.7288C62.8397 16.5593 71.2253 13.7705 76.6168 11.7888C76.8379 11.708 77.1672 11.5794 77.5702 11.4099C77.6931 11.6819 77.8307 11.95 77.9831 12.2132C79.3051 14.5068 81.6446 16.3612 84.0283 17.0236C99.1461 21.2234 116.79 16.1912 131.156 12.0959C131.805 11.9101 132.183 11.228 132.001 10.5741C131.815 9.92009 131.136 9.54012 130.483 9.72591C116.52 13.7069 99.3771 18.7297 84.6819 14.6487C82.8733 14.146 81.1138 12.7208 80.1112 10.9801C79.9981 10.786 79.8998 10.5874 79.8065 10.3858C81.7871 9.40163 84.1167 8.02963 85.37 6.56102C86.6577 5.05545 86.9771 3.44837 85.8565 1.93048C84.8932 0.632882 83.4336 0.522488 81.9149 1.19519C80.2783 1.91569 78.5925 3.60013 78.047 4.39061C77.0247 5.8671 76.7003 7.46879 76.8871 9.03054C76.4054 9.23457 76.0142 9.38634 75.7729 9.47505C70.4994 11.4128 62.303 14.148 54.6807 15.2918C49.7762 16.0281 45.1175 16.1262 41.7076 14.8202C40.2534 14.2628 39.2925 13.6123 38.771 12.8573C39.8002 12.5488 40.7925 12.2452 41.7406 11.9554C43.6156 11.3823 47.5194 10.4336 50.3085 8.74274C52.5265 7.39832 54.0305 5.56947 53.943 3.27686C53.8983 2.09902 53.2185 1.31296 52.1368 0.872376C50.5203 0.21446 47.7248 0.532816 46.6838 0.754585C43.5266 1.42581 39.3127 4.20434 37.2278 7.33523C36.3958 8.58454 35.9008 9.8915 35.8482 11.1546ZM38.4418 10.3848C39.3338 10.1157 40.1959 9.85157 41.024 9.59826C42.7741 9.06306 46.4327 8.21293 49.037 6.63393C50.4161 5.79811 51.5421 4.79671 51.4875 3.37098C51.4831 3.2601 51.3735 3.22856 51.2767 3.18323C51.1268 3.11374 50.9553 3.06592 50.7724 3.02847C49.5354 2.77516 47.8737 3.02008 47.1935 3.16497C44.5444 3.72826 41.0205 6.07656 39.2714 8.70379C38.9018 9.2587 38.6074 9.82397 38.4418 10.3848ZM79.315 7.89607C80.47 7.30024 81.679 6.57973 82.6325 5.79565C83.1387 5.37922 83.5663 4.95097 83.8366 4.50645C84.0627 4.1388 84.1511 3.76227 83.8808 3.39856C83.7727 3.25121 83.6105 3.24827 83.4434 3.27587C83.2665 3.30544 83.0846 3.3685 82.9028 3.44982C81.7036 3.97911 80.4651 5.2156 80.067 5.79565C79.6001 6.46835 79.369 7.18 79.315 7.89607Z" fill="#E035A6"/>
</svg>
