<svg width="32" height="32" viewBox="0 0 32 32" fill="none" xmlns="http://www.w3.org/2000/svg">
<g clip-path="url(#clip0_1322_598)">
<path d="M0.679021 15.809C0.678277 18.4977 1.38079 21.1229 2.7166 23.4368L0.55127 31.3428L8.64206 29.2214C10.8799 30.4396 13.3872 31.078 15.9351 31.0781H15.9418C24.3529 31.0781 31.1998 24.2337 31.2034 15.8211C31.205 11.7445 29.6189 7.91125 26.7372 5.02728C23.8559 2.14356 20.024 0.554595 15.9412 0.552734C7.52901 0.552734 0.682618 7.39677 0.679146 15.809" fill="url(#paint0_linear_1322_598)"/>
<path d="M0.134178 15.8035C0.13331 18.5889 0.861 21.308 2.24444 23.7048L0.00146484 31.8942L8.38236 29.6967C10.6916 30.9558 13.2915 31.6196 15.9371 31.6206H15.9439C24.6568 31.6206 31.7497 24.53 31.7534 15.8162C31.7549 11.5932 30.1117 7.62208 27.127 4.63479C24.142 1.64788 20.173 0.00173643 15.9439 0C7.22949 0 0.137651 7.08961 0.134178 15.8035ZM5.12531 23.292L4.81238 22.7953C3.49691 20.7036 2.80258 18.2865 2.80357 15.8045C2.8063 8.56174 8.70075 2.66915 15.9489 2.66915C19.459 2.67064 22.7577 4.03895 25.2388 6.52155C27.7198 9.0044 29.085 12.3049 29.0841 15.8152C29.0809 23.058 23.1863 28.9513 15.9439 28.9513H15.9387C13.5805 28.9501 11.2677 28.3168 9.2507 27.12L8.77071 26.8354L3.79731 28.1393L5.12531 23.292Z" fill="url(#paint1_linear_1322_598)"/>
<path d="M11.9925 9.19759C11.6966 8.53986 11.3851 8.52658 11.1037 8.51505C10.8732 8.50513 10.6098 8.50587 10.3466 8.50587C10.0832 8.50587 9.65514 8.60497 9.29334 9.00001C8.93117 9.39542 7.91064 10.351 7.91064 12.2944C7.91064 14.238 9.32621 16.1162 9.52354 16.38C9.72113 16.6433 12.2563 20.7591 16.2715 22.3425C19.6084 23.6584 20.2875 23.3967 21.0117 23.3307C21.736 23.2649 23.3489 22.3754 23.678 21.453C24.0073 20.5307 24.0073 19.7401 23.9085 19.5749C23.8098 19.4103 23.5464 19.3115 23.1513 19.114C22.7562 18.9164 20.8141 17.9608 20.452 17.8289C20.0899 17.6972 19.8266 17.6315 19.5631 18.027C19.2997 18.4219 18.5432 19.3115 18.3126 19.5749C18.0823 19.839 17.8517 19.8718 17.4568 19.6742C17.0615 19.476 15.7893 19.0594 14.28 17.7138C13.1057 16.6667 12.3129 15.3737 12.0824 14.9782C11.852 14.5833 12.0577 14.3692 12.2558 14.1724C12.4333 13.9954 12.651 13.7111 12.8487 13.4805C13.0457 13.2498 13.1114 13.0852 13.2431 12.8218C13.375 12.5581 13.309 12.3274 13.2104 12.1298C13.1114 11.9322 12.3438 9.97862 11.9925 9.19759Z" fill="white"/>
</g>
<defs>
<linearGradient id="paint0_linear_1322_598" x1="1533.16" y1="3079.56" x2="1533.16" y2="0.552734" gradientUnits="userSpaceOnUse">
<stop stop-color="#1FAF38"/>
<stop offset="1" stop-color="#60D669"/>
</linearGradient>
<linearGradient id="paint1_linear_1322_598" x1="1587.6" y1="3189.42" x2="1587.6" y2="0" gradientUnits="userSpaceOnUse">
<stop stop-color="#F9F9F9"/>
<stop offset="1" stop-color="white"/>
</linearGradient>
<clipPath id="clip0_1322_598">
<rect width="31.7547" height="32" fill="white"/>
</clipPath>
</defs>
</svg>
